<svg width="48" height="48" viewBox="0 0 48 48" fill="none" xmlns="http://www.w3.org/2000/svg">
<path d="M44.3389 1.50008H37.0797C36.922 1.49765 36.768 1.54766 36.6418 1.64227C36.5157 1.73689 36.4245 1.87072 36.3828 2.02274L33.8275 10.5452H22.6917C22.3597 8.28373 21.3468 6.17702 19.788 4.50542L19.7734 4.4038H19.6573C18.46 3.1963 16.9528 2.34227 15.3018 1.93564C13.7434 1.61032 12.1282 1.68323 10.6056 2.14763C9.08295 2.61203 7.70203 3.45293 6.59054 4.59254H6.4889V4.67965C6.05315 5.12647 5.65949 5.61248 5.3129 6.13151C4.19048 7.89404 3.65352 9.9661 3.77867 12.0519C3.90383 14.1378 4.68468 16.1307 6.00978 17.7463C6.10362 17.8692 6.20547 17.9856 6.31469 18.0948C6.34019 18.1443 6.37465 18.1887 6.41632 18.2256C7.25468 19.0348 8.24688 19.6677 9.33419 20.0866C10.4215 20.5056 11.5818 20.7021 12.7464 20.6646H13.5885C14.2418 25.4268 15.3018 32.7006 16.7536 43.7493L16.8406 44.3445C16.9318 45.0078 17.2599 45.6157 17.7642 46.056C18.2686 46.4964 18.9151 46.7392 19.5847 46.7401H34.4953C35.1753 46.7379 35.8309 46.4872 36.339 46.0354C36.847 45.5835 37.1724 44.9614 37.2538 44.2864L41.2029 11.3582C41.2144 11.2569 41.2048 11.1544 41.1748 11.0569C41.145 10.9595 41.0952 10.8693 41.0287 10.792C40.9599 10.7136 40.875 10.651 40.7797 10.6084C40.6845 10.5658 40.5813 10.5443 40.477 10.5452H35.352L37.6458 2.95193H44.3389C44.5315 2.95193 44.7162 2.87546 44.8522 2.73932C44.9884 2.60318 45.0649 2.41853 45.0649 2.22601C45.0649 2.03348 44.9884 1.84883 44.8522 1.71269C44.7162 1.57655 44.5315 1.50008 44.3389 1.50008ZM13.8498 11.997H33.3919L31.2721 19.1112H14.8516C14.3725 15.5395 14.0531 13.115 13.8498 11.997ZM14.7936 10.5452L19.1491 5.98633C20.199 7.30615 20.8846 8.87792 21.1381 10.5452H14.7936ZM14.7936 3.28586C16.0495 3.56522 17.2198 4.14289 18.2055 4.97003L13.0949 10.2112L8.0424 5.1878C8.96522 4.37303 10.0639 3.78265 11.2527 3.46279C12.4415 3.14293 13.6881 3.10226 14.8952 3.34394L14.7936 3.28586ZM6.45988 6.9736C6.63724 6.71447 6.83121 6.46714 7.04061 6.23315L12.0786 11.3147L6.93899 16.6285C5.8614 15.2704 5.2358 13.6094 5.14988 11.8779C5.06396 10.1465 5.52203 8.43157 6.45988 6.9736ZM7.91172 17.7319L12.5577 12.9117C12.7029 14.0296 12.9642 15.9316 13.3998 19.1838C11.4463 19.3755 9.48878 18.8604 7.8827 17.7319H7.91172ZM35.8165 44.1121C35.7747 44.4343 35.6179 44.7306 35.3752 44.9466C35.1327 45.1627 34.8202 45.2839 34.4953 45.2881H27.7441L30.8947 43.4878C31.0581 43.3935 31.1784 43.239 31.2298 43.0575C31.2813 42.8758 31.2601 42.6813 31.1706 42.5151L28.746 37.8837C28.7013 37.7988 28.6395 37.7239 28.5645 37.6641C28.4896 37.6041 28.4031 37.5603 28.3104 37.5352C28.2237 37.4959 28.1296 37.4757 28.0345 37.4757C27.9394 37.4757 27.8454 37.4959 27.7587 37.5352L23.1273 40.0179C22.9615 40.1101 22.8375 40.2625 22.7808 40.4434C22.7241 40.6245 22.7389 40.8204 22.8223 40.9906L25.0728 45.2446H19.5556C19.2373 45.2475 18.9288 45.1339 18.6882 44.9254C18.4476 44.7169 18.2914 44.4277 18.249 44.1121L18.2055 43.6041C16.8213 33.6153 15.7711 25.9348 15.0549 20.563H30.8076L27.7587 30.726L26.3068 35.0817C26.2672 35.1708 26.2467 35.2672 26.2467 35.3647C26.2467 35.4622 26.2672 35.5587 26.3068 35.6478C26.3514 35.7345 26.4129 35.8113 26.4877 35.8737C26.5626 35.9359 26.6491 35.9826 26.7424 36.0108L32.2014 37.6078H32.4046C32.557 37.6056 32.7052 37.5571 32.8296 37.4691C32.9539 37.3809 33.0487 37.2573 33.1015 37.1142L34.8873 31.7133C34.9468 31.5304 34.9314 31.3314 34.8442 31.1598C34.7572 30.9883 34.6056 30.8584 34.4227 30.7986L29.6461 29.2596L32.2594 20.5485H38.575L35.8165 44.1121ZM26.2777 44.4606L24.4485 40.9906L27.8022 39.2485L29.559 42.6168L26.2777 44.4606ZM29.2977 30.639L33.3339 31.9456L31.9981 35.9673L28.02 34.8058L29.1379 31.1181L29.2977 30.639ZM39.6639 11.997L38.8074 19.1112H32.724L34.8727 11.997H39.6639Z" fill="#27CA7D"/>
<path d="M26.6245 30.0414L23.5755 24.7275C23.53 24.6447 23.4678 24.5724 23.3928 24.5148C23.3178 24.4573 23.2318 24.4161 23.14 24.3936C23.0533 24.3543 22.9593 24.334 22.8642 24.334C22.7689 24.334 22.6749 24.3543 22.5883 24.3936L17.2018 27.4861C17.0374 27.5833 16.9168 27.7402 16.8655 27.9243C16.8141 28.1082 16.8358 28.305 16.926 28.4733L20.0911 34.0194C20.1396 34.1026 20.2045 34.1752 20.2819 34.2325C20.3592 34.29 20.4474 34.3311 20.5411 34.3534H20.7154C20.8495 34.3503 20.9802 34.3101 21.0928 34.2372L26.3776 30.985C26.5312 30.8889 26.6424 30.7375 26.6883 30.5622C26.7342 30.3868 26.7114 30.2005 26.6245 30.0414ZM20.9767 32.6401L18.5521 28.3863L22.6753 26.0052L25.0275 30.1429L20.9767 32.6401Z" fill="#27CA7D"/>
</svg>
