<svg width="22" height="20" viewBox="0 0 22 20" fill="none" xmlns="http://www.w3.org/2000/svg">
<path fill-rule="evenodd" clip-rule="evenodd" d="M19.8469 1.93557C18.5193 0.581733 17.0414 0.162909 15.6535 0.264512C14.3031 0.363369 13.087 0.949139 12.1988 1.51257C11.4984 1.95689 10.5014 1.95689 9.80094 1.51257C8.91273 0.949145 7.69663 0.363382 6.34627 0.264528C4.95837 0.162926 3.48049 0.581747 2.15293 1.93557C0.585651 3.53386 0.0939334 5.50689 0.291387 7.50265C0.486565 9.47542 1.35189 11.4808 2.50601 13.2578C3.6632 15.0396 5.14139 16.6392 6.62436 17.8008C8.0747 18.9368 9.65274 19.75 10.9999 19.75C12.3471 19.75 13.9251 18.9368 15.3755 17.8008C16.8584 16.6392 18.3366 15.0396 19.4938 13.2578C20.6479 11.4808 21.5132 9.47541 21.7084 7.50265C21.9059 5.50688 21.4142 3.53386 19.8469 1.93557ZM13.0023 2.77922C13.7878 2.28097 14.76 1.83394 15.763 1.76051C16.7286 1.68983 17.7692 1.95923 18.7759 2.98579C19.9791 4.21282 20.3775 5.71987 20.2157 7.35497C20.0517 9.01307 19.3085 10.7893 18.2358 12.4408C17.1663 14.0876 15.7996 15.5632 14.4505 16.6199C13.0689 17.7021 11.8278 18.25 10.9999 18.25C10.172 18.25 8.93096 17.7021 7.5493 16.6199C6.20024 15.5632 4.83351 14.0876 3.76397 12.4408C2.69135 10.7893 1.94815 9.01307 1.7841 7.35497C1.62233 5.71987 2.0207 4.21283 3.22393 2.98579C4.23056 1.95925 5.27122 1.68984 6.23675 1.76052C7.23981 1.83395 8.212 2.28098 8.99745 2.77922C10.1884 3.53467 11.8114 3.53467 13.0023 2.77922Z" fill="#939393"/>
</svg>
