<svg width="24" height="25" viewBox="0 0 24 25" fill="none" xmlns="http://www.w3.org/2000/svg">
<path d="M5.96852 2.34105C6.29197 2.08229 6.34441 1.61032 6.08565 1.28688C5.82689 0.963431 5.35493 0.91099 5.03148 1.16975L2.53148 3.16975C2.20803 3.4285 2.15559 3.90047 2.41435 4.22392C2.67311 4.54737 3.14507 4.59981 3.46852 4.34105L5.96852 2.34105Z" fill="#27CA7D"/>
<path d="M18.9685 1.16975C18.6451 0.91099 18.1731 0.963431 17.9143 1.28688C17.6556 1.61032 17.708 2.08229 18.0315 2.34105L20.5315 4.34105C20.8549 4.59981 21.3269 4.54737 21.5857 4.22392C21.8444 3.90047 21.792 3.4285 21.4685 3.16975L18.9685 1.16975Z" fill="#27CA7D"/>
<path d="M12.75 8.5054C12.75 8.09119 12.4142 7.7554 12 7.7554C11.5858 7.7554 11.25 8.09119 11.25 8.5054L11.25 12.0054C11.25 13.248 12.2574 14.2554 13.5 14.2554H15C15.4142 14.2554 15.75 13.9196 15.75 13.5054C15.75 13.0912 15.4142 12.7554 15 12.7554H13.5C13.0858 12.7554 12.75 12.4196 12.75 12.0054L12.75 8.5054Z" fill="#27CA7D"/>
<path fill-rule="evenodd" clip-rule="evenodd" d="M12 1.7554C6.06294 1.7554 1.25 6.56834 1.25 12.5054C1.25 18.4425 6.06294 23.2554 12 23.2554C17.9371 23.2554 22.75 18.4425 22.75 12.5054C22.75 6.56834 17.9371 1.7554 12 1.7554ZM2.75 12.5054C2.75 7.39676 6.89137 3.2554 12 3.2554C17.1086 3.2554 21.25 7.39676 21.25 12.5054C21.25 17.614 17.1086 21.7554 12 21.7554C6.89137 21.7554 2.75 17.614 2.75 12.5054Z" fill="#27CA7D"/>
</svg>
