<svg width="48" height="48" viewBox="0 0 48 48" fill="none" xmlns="http://www.w3.org/2000/svg">
<g clip-path="url(#clip0_935_13096)">
<path d="M38.2187 13.3827C38.1824 13.2911 38.1282 13.2075 38.0595 13.1368C37.9908 13.0661 37.9089 13.0096 37.8183 12.9706C37.7277 12.9315 37.6304 12.9108 37.5318 12.9094C37.4331 12.9081 37.3353 12.9262 37.2437 12.9627C37.1387 12.9627 36.3437 13.3377 35.1887 13.8777C33.3153 10.3122 30.7683 7.14371 27.6887 4.54775C22.1387 -0.267255 13.8437 0.00274558 13.4987 0.00274558C13.3799 0.0073576 13.2639 0.0395826 13.1597 0.0968643C13.0556 0.154146 12.9662 0.234909 12.8987 0.332745C12.8326 0.430667 12.7901 0.542569 12.7744 0.659679C12.7588 0.77679 12.7706 0.895925 12.8087 1.00775C12.8987 1.27775 15.1187 7.62275 19.7837 10.8477C19.991 10.9948 20.2062 11.13 20.4287 11.2527C16.9388 11.5682 13.585 12.7601 10.6787 14.7177C10.5819 14.7851 10.5028 14.8748 10.4479 14.9793C10.3931 15.0837 10.3642 15.1998 10.3637 15.3177C10.363 15.4327 10.3883 15.5465 10.4377 15.6503C10.487 15.7542 10.5591 15.8456 10.6487 15.9177C13.4266 18.0406 16.74 19.3494 20.2187 19.6977H20.4737C22.9419 19.5745 25.376 19.0684 27.6887 18.1977C27.0408 18.6765 26.4428 19.2192 25.9037 19.8177C24.2739 21.717 22.7706 23.7213 21.4037 25.8177C20.1669 25.2302 18.7824 25.0263 17.4287 25.2327C11.9987 25.8777 8.72869 28.7577 7.73869 33.6777C6.74869 38.5977 8.90869 43.2627 12.9137 44.4627C13.5434 44.6388 14.1949 44.7246 14.8487 44.7177C17.2551 44.5809 19.6037 43.926 21.7337 42.7977C22.4112 44.2362 23.4669 45.4636 24.788 46.3486C26.1089 47.2338 27.6456 47.7434 29.2337 47.8227C34.7987 47.8227 37.7087 42.3777 37.7087 36.9927C37.7087 33.6777 34.7087 27.7227 29.8337 27.2427C29.6103 25.9095 29.4999 24.5597 29.5037 23.2077C29.5227 21.5761 29.6885 19.9497 29.9987 18.3477C32.4876 16.8202 35.0903 15.4863 37.7837 14.3577C37.878 14.3246 37.9644 14.2726 38.0379 14.2048C38.1114 14.1371 38.1704 14.0551 38.211 13.9639C38.2518 13.8726 38.2734 13.774 38.2748 13.6741C38.2761 13.5742 38.2571 13.475 38.2187 13.3827ZM14.6237 1.50274C16.9937 1.60774 22.7387 2.20775 26.7287 5.65775C29.3852 7.94406 31.6368 10.6622 33.3887 13.6977C32.2637 13.5027 30.5687 13.1877 28.7387 12.7377C27.5919 12.3265 26.4194 11.9908 25.2287 11.7327C23.6109 11.2364 22.0671 10.5251 20.6387 9.61774C17.9633 7.48068 15.8904 4.68398 14.6237 1.50274ZM20.2487 18.1977C17.4582 17.9356 14.7823 16.9593 12.4787 15.3627C15.5447 13.4672 19.1276 12.5806 22.7237 12.8277C23.4887 12.9327 24.2237 13.0677 24.8837 13.2177C26.0087 13.5927 27.1487 13.9077 28.2437 14.1777C29.1491 14.5027 30.0354 14.8784 30.8987 15.3027C28.4987 16.3377 23.5337 18.3027 20.2487 18.1977ZM13.3487 43.0227C10.0937 42.0627 8.35369 38.2527 9.20869 34.0227C10.0637 29.7927 12.8237 27.3177 17.6087 26.6577C18.7796 26.5219 19.9644 26.7342 21.0155 27.2676C22.0665 27.8011 22.9373 28.6324 23.5187 29.6577C21.5094 31.6407 20.3616 34.335 20.3237 37.1577C20.3225 38.6293 20.592 40.0887 21.1187 41.4627C19.9187 42.0027 16.0337 43.8177 13.3487 43.0227ZM36.2087 37.0227C36.2087 41.6577 33.8087 46.3527 29.2337 46.3527C25.2137 46.3527 21.8237 42.1377 21.8237 37.1577C21.8237 33.0777 24.8237 28.7277 29.2037 28.7277C33.5837 28.7277 36.2087 34.5027 36.2087 36.9927V37.0227ZM28.3037 27.2877C26.9987 27.4324 25.7507 27.9017 24.6737 28.6527C24.1169 27.8391 23.4332 27.12 22.6487 26.5227C23.9835 24.5232 25.436 22.6047 26.9987 20.7777C27.3881 20.346 27.8147 19.9496 28.2737 19.5927C28.0854 20.7888 27.9851 21.997 27.9737 23.2077C27.9824 24.5641 28.0928 25.9179 28.3037 27.2577V27.2877Z" fill="#27CA7D"/>
</g>
<defs>
<clipPath id="clip0_935_13096">
<rect width="48" height="48" fill="white"/>
</clipPath>
</defs>
</svg>
