<svg width="48" height="48" viewBox="0 0 48 48" fill="none" xmlns="http://www.w3.org/2000/svg">
<path d="M43.3815 25.7862C42.5809 21.0236 38.334 17.2922 33.0692 16.4237C33.1976 12.6617 31.9424 8.98313 29.5413 6.08416C27.1803 3.60104 23.8287 2.24414 19.4595 2.24414C11.9423 2.24414 8.21087 5.8942 6.41976 8.94721C5.35098 10.8076 4.80261 12.9214 4.83219 15.0668V19.7481C4.83219 20.7174 5.21631 21.6473 5.90045 22.3338C6.58457 23.0205 7.51295 23.4081 8.48225 23.4117H13.2042C13.1614 24.8556 13.0391 26.2962 12.8379 27.7266C12.5481 29.3198 12.1399 30.8891 11.6167 32.4215C10.789 35.1353 10.002 37.6455 10.3955 38.9889C10.7632 40.6323 11.7132 42.0872 13.07 43.0848C14.4267 44.0823 16.0986 44.5554 17.777 44.4165C20.1003 44.5077 22.4157 44.0909 24.5615 43.1952C26.3216 44.1929 28.3051 44.7296 30.3282 44.7557C30.4002 44.7663 30.4734 44.7663 30.5454 44.7557C30.6216 44.7698 30.6997 44.7698 30.7759 44.7557C30.966 44.7557 35.3758 44.7557 37.4112 42.449C37.7979 42.0263 38.088 41.5247 38.2614 40.9787C38.4348 40.4328 38.4873 39.8556 38.4153 39.2874C38.1534 37.2491 37.3314 35.3234 36.0408 33.7241C35.8644 33.4799 35.6608 33.1949 35.5387 32.9915H35.6202H35.7695L36.4207 32.8964H36.57C36.7119 32.8926 36.8493 32.8452 36.9634 32.7608C39.1086 32.546 41.0969 31.5398 42.5403 29.9384C42.959 29.3415 43.2498 28.6647 43.3946 27.9501C43.5393 27.2357 43.535 26.499 43.3815 25.7862ZM6.18909 19.7481V15.0668C6.15167 13.1692 6.62 11.2959 7.54598 9.63923C9.20139 6.88472 12.5801 3.60104 19.4595 3.60104C21.1277 3.49201 22.7999 3.73931 24.3651 4.32655C25.9302 4.91377 27.3524 5.82745 28.5372 7.00685C30.6662 9.61897 31.7921 12.9056 31.7122 16.2744H30.7353H30.2875C28.0858 16.229 25.9077 16.7339 23.9505 17.7432C21.9933 18.7527 20.3192 20.2347 19.0796 22.0548H8.48225C7.87281 22.0512 7.28957 21.8066 6.85991 21.3744C6.43025 20.9423 6.18908 20.3576 6.18909 19.7481ZM11.6845 38.6225C11.4131 37.6592 12.2001 35.081 12.9057 32.8151C13.4546 31.2123 13.881 29.5703 14.1812 27.903C14.3913 26.4141 14.5182 24.9147 14.5611 23.4117H18.4011C18.0641 24.1704 17.8226 24.9681 17.682 25.7862C17.5374 26.4839 17.5338 27.2034 17.6714 27.9024C17.8088 28.6016 18.0846 29.2661 18.4826 29.8569C20.1108 32.0958 23.4624 32.5707 25.2671 32.8829H25.4027H25.4978C25.3757 33.0864 25.1721 33.3713 24.9957 33.6156C23.7304 35.1984 22.9274 37.1003 22.6754 39.111C22.6146 39.6227 22.6551 40.1412 22.7949 40.6371C22.9346 41.133 23.1707 41.5965 23.4896 42.0012C21.6542 42.6626 19.7139 42.9843 17.7635 42.951C16.3985 43.0839 15.0315 42.7191 13.9144 41.9237C12.7973 41.1282 12.0053 39.9558 11.6845 38.6225ZM41.5362 29.1243C40.533 30.2493 39.1715 30.9924 37.6825 31.2275C37.7986 30.8462 37.8369 30.4455 37.7949 30.0492C37.7529 29.6529 37.6317 29.2692 37.4384 28.9208C37.1649 28.4645 36.7581 28.1028 36.273 27.8846C35.7879 27.6662 35.2474 27.6017 34.7246 27.6995C34.5528 27.7443 34.4055 27.8547 34.3142 28.0068C34.2229 28.1591 34.1949 28.341 34.2362 28.5137C34.2782 28.6857 34.3846 28.8351 34.5336 28.931C34.6826 29.027 34.8625 29.0621 35.0367 29.0292C35.1045 29.0292 35.7286 28.9071 36.2715 29.6942C36.4555 30.2991 36.4122 30.9507 36.1493 31.526L35.6065 31.6074H35.4573C35.2019 31.6176 34.9531 31.6928 34.7347 31.8257C34.5163 31.9587 34.3354 32.145 34.209 32.3672C33.924 33.0185 34.3582 33.6291 34.9688 34.484C36.0905 35.8734 36.8086 37.5446 37.0449 39.3146C37.0977 39.6945 37.0654 40.0817 36.9504 40.4477C36.8354 40.8137 36.6406 41.1497 36.3799 41.4312C34.7382 43.2495 30.7759 43.3038 30.7353 43.3038H30.5183H30.3011C29.202 43.3038 26.027 42.951 24.6564 41.4449C24.4034 41.1561 24.2144 40.8168 24.1022 40.4496C23.9898 40.0824 23.9568 39.6954 24.0051 39.3146C24.2375 37.5459 24.9509 35.8749 26.0676 34.484C26.6783 33.6291 27.1124 33.0185 26.841 32.3672C26.7134 32.1431 26.5302 31.9556 26.3092 31.8225C26.0883 31.6895 25.8369 31.6154 25.5791 31.6074H25.4435H25.3077C25.077 30.9561 24.9006 30.0741 25.1585 29.7077C25.2717 29.487 25.4489 29.3057 25.6667 29.187C25.8845 29.0685 26.1329 29.0183 26.3798 29.0429C26.5596 29.0861 26.7494 29.0559 26.9072 28.9593C27.065 28.8626 27.1778 28.7072 27.221 28.5272C27.2642 28.3473 27.2342 28.1576 27.1374 27.9998C27.0407 27.842 26.8853 27.7292 26.7054 27.686C26.1824 27.588 25.642 27.6527 25.1569 27.8709C24.6717 28.0893 24.2651 28.4508 23.9916 28.9071C23.8004 29.2772 23.6873 29.6823 23.6594 30.0978C23.6313 30.5133 23.6889 30.9302 23.8287 31.3224C22.1937 31.1151 20.6847 30.3365 19.5681 29.1243C19.269 28.6686 19.0646 28.1577 18.9666 27.6216C18.8687 27.0855 18.8795 26.5353 18.9981 26.0034C19.7988 21.2136 24.6701 17.5907 30.3147 17.5907H30.7625C36.4071 17.5907 41.2649 21.2136 42.0654 26.0034C42.1875 26.5365 42.1974 27.0893 42.0947 27.6266C41.9919 28.1637 41.7786 28.6737 41.4684 29.1243H41.5362Z" fill="#27CA7D"/>
</svg>
