<svg width="48" height="48" viewBox="0 0 48 48" fill="none" xmlns="http://www.w3.org/2000/svg">
<g clip-path="url(#clip0_935_16113)">
<path d="M41.5053 0.270461C41.442 0.110924 41.3248 -0.0214175 41.1741 -0.103611C41.0235 -0.185805 40.8487 -0.212667 40.6803 -0.179539C40.0053 -0.044539 24.0003 3.00047 17.4453 12.7655C11.2053 21.9755 16.0803 31.4405 16.8603 32.8205C13.3993 36.1482 9.57533 39.0767 5.46033 41.5505C4.46283 41.9615 3.6513 42.7248 3.18033 43.6955C3.03945 44.0658 2.97864 44.4618 3.00191 44.8575C3.02519 45.2531 3.132 45.6392 3.31533 45.9905C3.45152 46.3065 3.65703 46.5879 3.91668 46.8138C4.17633 47.0397 4.48346 47.2044 4.81533 47.2955C5.06073 47.3559 5.3126 47.3861 5.56533 47.3855C6.88337 47.2569 8.14499 46.7864 9.22533 46.0205C13.3575 42.9966 17.2907 39.7098 21.0003 36.1805C21.0474 36.3005 21.1245 36.4062 21.2244 36.4877C21.3243 36.5691 21.4434 36.6234 21.5703 36.6455C23.3373 36.9233 25.1219 37.0737 26.9103 37.0955C33.8553 37.0955 37.9653 34.2155 41.9103 27.2255C48.1503 15.9454 41.7903 0.915461 41.5053 0.270461ZM8.38533 44.8205C7.47318 45.5048 6.36056 45.8687 5.22033 45.8555C5.09652 45.8201 4.9823 45.7572 4.88619 45.6714C4.7901 45.5858 4.71459 45.4794 4.66533 45.3605C4.57491 45.1916 4.52025 45.0059 4.50477 44.8149C4.48928 44.6238 4.51331 44.4318 4.57533 44.2505C4.90713 43.6464 5.43683 43.175 6.07533 42.9155H6.18033C12.0576 39.4031 17.326 34.9604 21.7803 29.7605C25.6551 25.0271 29.2034 20.0357 32.4003 14.8205C32.6516 14.3039 33.0688 13.8866 33.5853 13.6355C33.8196 13.5446 34.069 13.4988 34.3203 13.5005C34.7133 13.5099 35.1007 13.5966 35.4603 13.7555C36.0453 14.9255 31.4703 22.7555 23.9253 31.0655C19.1744 36.1134 13.9728 40.7175 8.38533 44.8205ZM40.5003 26.4905C36.0003 34.4555 31.5003 36.6005 21.9753 35.1905C23.0103 34.1705 24.0153 33.1355 24.9753 32.0555C25.9353 30.9755 26.5803 30.2405 27.4203 29.2355C27.5097 29.2497 27.6009 29.2497 27.6903 29.2355C29.0605 28.7568 30.4644 28.3808 31.8903 28.1105C33.486 27.8979 35.0977 27.8327 36.7053 27.9155C36.8035 27.9237 36.9024 27.9117 36.9958 27.8802C37.0891 27.8486 37.1751 27.7982 37.2483 27.7322C37.3213 27.666 37.3801 27.5856 37.4209 27.4959C37.4618 27.4062 37.4837 27.309 37.4853 27.2105C37.4914 27.1127 37.4778 27.0147 37.4455 26.9223C37.4131 26.8298 37.3628 26.7447 37.2971 26.6721C37.2313 26.5994 37.1518 26.5406 37.063 26.4992C36.9744 26.4576 36.8783 26.4342 36.7803 26.4305C35.0575 26.3309 33.3292 26.4011 31.6203 26.6405C30.6603 26.8055 29.8053 27.0155 29.1003 27.2105C30.4203 25.5755 31.6953 23.8655 32.8203 22.2155C33.9429 21.7475 35.1156 21.4103 36.3153 21.2105C37.4539 21.009 38.6092 20.9186 39.7653 20.9405C39.8638 20.9445 39.9622 20.9291 40.0546 20.895C40.1472 20.861 40.2321 20.8091 40.3045 20.7422C40.377 20.6753 40.4356 20.5949 40.4769 20.5053C40.5182 20.4158 40.5414 20.319 40.5453 20.2205C40.5493 20.1219 40.5339 20.0237 40.4999 19.9311C40.4658 19.8386 40.4139 19.7537 40.347 19.6812C40.2803 19.6088 40.1997 19.5503 40.1101 19.5089C40.0206 19.4676 39.9238 19.4444 39.8253 19.4405C38.5584 19.41 37.2916 19.5107 36.0453 19.7405C35.3103 19.8755 34.6953 20.0255 34.1853 20.1605C36.0003 17.2655 37.1853 14.7755 36.8703 13.4855C36.812 13.2097 36.6707 12.9585 36.4653 12.7655C36.7353 12.0905 37.1853 10.8905 37.6203 9.48047C37.9487 8.46348 38.1552 7.41113 38.2353 6.34547C38.2414 6.24693 38.2279 6.14817 38.1959 6.05484C38.1636 5.96151 38.1133 5.87544 38.0479 5.80158C37.9824 5.72772 37.9029 5.66751 37.8141 5.62443C37.7253 5.58134 37.6288 5.5562 37.5303 5.55047C37.3319 5.54958 37.1403 5.62296 36.9931 5.75619C36.846 5.88944 36.754 6.07287 36.7353 6.27047C36.664 7.21334 36.4828 8.14466 36.1953 9.04547C35.7903 10.3505 35.3553 11.4905 35.0853 12.1505C34.3972 11.9684 33.6702 11.9998 33.0003 12.2405C32.1471 12.6198 31.4562 13.2896 31.0503 14.1305C31.0503 14.1305 30.9303 14.3405 30.7203 14.6705C30.6303 13.9505 30.5103 13.1705 30.3453 12.2405C30.1486 11.0726 29.8371 9.92709 29.4153 8.82047C29.3358 8.63747 29.1867 8.49357 29.0012 8.42043C28.8155 8.34729 28.6083 8.35089 28.4253 8.43047C28.2423 8.51003 28.0984 8.65904 28.0252 8.84469C27.9522 9.03035 27.9558 9.23747 28.0353 9.42047C28.4233 10.4192 28.7097 11.4544 28.8903 12.5105C29.2353 14.4155 29.4003 16.0805 29.4603 16.6805C28.5153 18.1805 27.1953 20.1005 25.6353 22.2755C25.3203 21.4355 24.8853 20.2955 24.3303 19.0955C23.8017 17.9468 23.1096 16.8807 22.2753 15.9305C22.2084 15.8576 22.1277 15.7986 22.0379 15.7569C21.9482 15.7152 21.8511 15.6915 21.7521 15.6875C21.6532 15.6833 21.5546 15.6986 21.4616 15.7326C21.3686 15.7665 21.2832 15.8186 21.2103 15.8855C21.1374 15.9525 21.0785 16.0331 21.0368 16.1229C20.9951 16.2126 20.9715 16.3098 20.9673 16.4087C20.9631 16.5075 20.9784 16.6064 21.0125 16.6992C21.0464 16.7922 21.0984 16.8776 21.1653 16.9505C21.9027 17.7788 22.5098 18.7145 22.9653 19.7255C23.5658 21.0365 24.0966 22.3784 24.5553 23.7455C23.3403 25.3805 22.0203 27.0905 20.6403 28.7555C19.7703 29.8055 18.8703 30.7805 17.9553 31.7555C16.8903 29.7005 13.3353 21.5705 18.6903 13.7555C24.2553 5.53547 37.3953 2.22047 40.3653 1.57547C41.4453 4.32047 45.8253 17.0555 40.5003 26.4905Z" fill="#27CA7D"/>
</g>
<defs>
<clipPath id="clip0_935_16113">
<rect width="48" height="48" fill="white"/>
</clipPath>
</defs>
</svg>
