<svg width="48" height="48" viewBox="0 0 48 48" fill="none" xmlns="http://www.w3.org/2000/svg">
<path d="M18.6991 31.8122C18.9715 32.712 19.4619 33.5306 20.1265 34.1954C20.7913 34.8602 21.61 35.3505 22.5097 35.6228C22.7626 35.6847 23.0221 35.7155 23.2824 35.7144C23.5543 35.7189 23.8249 35.6745 24.0811 35.5835V38.6739C24.0811 38.8476 24.1501 39.0141 24.273 39.137C24.3957 39.2597 24.5623 39.3287 24.7359 39.3287C24.9096 39.3287 25.0761 39.2597 25.1989 39.137C25.3218 39.0141 25.3906 38.8476 25.3906 38.6739V35.5574C25.6515 35.6486 25.9263 35.6928 26.2026 35.6883C26.4628 35.6894 26.7223 35.6586 26.9752 35.5967C27.8752 35.3333 28.6917 34.8416 29.3454 34.1693C30.0196 33.5223 30.5118 32.7095 30.7728 31.8122C30.8998 31.4192 30.922 30.9996 30.837 30.5954C30.7519 30.1911 30.5628 29.8161 30.2883 29.5074C30.0535 29.2815 29.7651 29.1192 29.4501 29.036C29.8476 28.5477 30.1377 27.981 30.3013 27.3729C30.4209 27.0042 30.4414 26.6106 30.361 26.2314C30.2805 25.8522 30.102 25.5008 29.8429 25.2123C29.4508 24.8958 28.972 24.7053 28.4697 24.6656C27.9673 24.6258 27.4647 24.7388 27.0276 24.9897C27.1515 24.5375 27.2131 24.0705 27.2109 23.6016C27.2109 21.5325 26.124 19.9218 24.7359 19.9218C23.3479 19.9218 22.261 21.5325 22.261 23.6016C22.2597 24.0747 22.3213 24.5459 22.4443 25.0028C22.0096 24.7466 21.507 24.6293 21.0037 24.6668C20.5006 24.7041 20.0208 24.8945 19.6288 25.2123C19.3722 25.502 19.1959 25.854 19.1178 26.2332C19.0398 26.6123 19.0624 27.0053 19.1836 27.3729C19.3423 27.9803 19.6279 28.5471 20.0217 29.036C19.7068 29.1192 19.4182 29.2815 19.1836 29.5074C18.9114 29.8175 18.7236 30.1925 18.6387 30.5961C18.5538 30.9999 18.5746 31.4189 18.6991 31.8122ZM29.5026 31.4979C29.3089 32.1725 28.9381 32.783 28.4287 33.2657C27.9414 33.7724 27.333 34.1463 26.661 34.3526C26.484 34.4196 26.2933 34.4415 26.1058 34.4165C25.9183 34.3913 25.7401 34.3199 25.5871 34.2086C25.1419 33.7634 25.4562 32.4539 26.53 31.38C27.6037 30.3063 28.9132 29.9919 29.3716 30.4373C29.4732 30.5873 29.538 30.759 29.5608 30.9387C29.5836 31.1186 29.5636 31.3011 29.5026 31.4717V31.4979ZM28.9132 26.129C29.01 26.2587 29.0715 26.4113 29.0922 26.5718C29.1129 26.7324 29.0917 26.8955 29.0311 27.0456C28.8433 27.6477 28.5 28.1898 28.0359 28.617C27.0799 29.573 25.9276 29.9265 25.5348 29.4681C25.4434 29.3358 25.3851 29.1836 25.3645 29.0241C25.3441 28.8647 25.362 28.7027 25.4169 28.5515C25.6017 27.9504 25.935 27.4055 26.3859 26.967C26.9056 26.3921 27.6189 26.0285 28.3894 25.9457C28.4829 25.9358 28.5772 25.9445 28.6672 25.9715C28.7571 25.9985 28.8408 26.043 28.9132 26.1027V26.129ZM24.7359 21.2052C25.2859 21.2052 25.9014 22.2135 25.9014 23.5754C25.9014 24.9372 25.2859 25.9457 24.7359 25.9457C24.186 25.9457 23.5705 24.9372 23.5705 23.5754C23.5705 22.2135 24.186 21.2052 24.7359 21.2052ZM20.5587 26.1027C20.7036 25.9892 20.8855 25.9332 21.0693 25.9457C21.8353 26.0316 22.5433 26.3949 23.0598 26.967C23.5153 27.4017 23.8494 27.948 24.0288 28.5515C24.0877 28.7012 24.109 28.863 24.0907 29.0229C24.0724 29.1827 24.0153 29.3357 23.9241 29.4681C23.5312 29.861 22.3788 29.573 21.4098 28.617C20.959 28.1756 20.6298 27.6254 20.4538 27.0194C20.3949 26.8697 20.3736 26.7078 20.3919 26.5481C20.4102 26.3882 20.4675 26.2353 20.5587 26.1027ZM20.1789 30.411C20.3422 30.2712 20.5536 30.2007 20.7681 30.2145C21.63 30.3038 22.428 30.7098 23.0074 31.3539C24.0943 32.4276 24.3955 33.7371 23.9502 34.1823C23.7997 34.2936 23.6238 34.365 23.4384 34.3902C23.253 34.4154 23.0641 34.3935 22.8895 34.3265C22.2234 34.1073 21.6181 33.7349 21.1222 33.239C20.6265 32.7431 20.2539 32.1378 20.0349 31.4717C19.9678 31.2971 19.9458 31.1084 19.971 30.923C19.9962 30.7376 20.0676 30.5615 20.1789 30.411Z" fill="#27CA7D"/>
<path d="M43.932 14.1442C43.9285 13.2214 43.5604 12.3374 42.9079 11.6849C42.2554 11.0324 41.3713 10.6644 40.4487 10.6609H40.3831C40.2501 10.062 39.9829 9.50106 39.6019 9.02022C39.2209 8.5394 38.7358 8.15118 38.1832 7.88476C36.0898 7.37962 33.9462 7.11166 31.7928 7.08595C29.7207 7.07263 27.7018 6.4286 26.0049 5.23956C23.8021 3.76224 21.2059 2.982 18.5538 3.00032C12.5694 3.00032 10.0944 8.91927 9.49201 10.6609H9.2563C8.38782 10.652 7.54732 10.9678 6.89964 11.5465C6.25195 12.1251 5.84383 12.9249 5.7553 13.7889C5.66677 14.6529 5.90422 15.5189 6.42108 16.2168C6.93793 16.9149 7.69692 17.3946 8.54917 17.562V40.8581C8.54917 41.3045 8.63733 41.7467 8.8086 42.159C8.97985 42.5714 9.23085 42.9457 9.54718 43.2609C9.86352 43.576 10.239 43.8255 10.6519 43.9953C11.0649 44.165 11.5074 44.2514 11.9539 44.2497H38.5105C39.5224 44.2497 40.4931 43.8486 41.2098 43.1343C41.9265 42.42 42.3309 41.4508 42.3343 40.4389V17.0775C42.8259 16.7624 43.23 16.3284 43.5093 15.8157C43.7884 15.303 43.9339 14.728 43.932 14.1442ZM18.5538 4.30982C20.9722 4.28286 23.3404 5.00064 25.3369 6.36573C27.2271 7.67406 29.4679 8.38147 31.7667 8.39547C33.7506 8.40792 35.7268 8.64069 37.6594 9.08951C37.9719 9.25017 38.2489 9.47211 38.4739 9.74206C38.6989 10.012 38.8672 10.3245 38.9689 10.6609H10.8801C11.5872 8.77522 13.7479 4.30982 18.5538 4.30982ZM40.9986 17.6274V40.4389C40.9953 41.0989 40.7323 41.7312 40.2669 42.1992C39.8014 42.6672 39.1705 42.9333 38.5105 42.9402H11.9539C11.4005 42.9402 10.8695 42.7212 10.477 42.331C10.0844 41.941 9.86214 41.4114 9.85867 40.8581V17.6274H40.9986ZM40.4487 16.3179H9.2563C8.67979 16.3179 8.12688 16.089 7.71922 15.6813C7.31155 15.2736 7.08253 14.7207 7.08253 14.1442C7.08253 13.5677 7.31155 13.0147 7.71922 12.6071C8.12688 12.1994 8.67979 11.9704 9.2563 11.9704H40.4487C40.7341 11.9704 41.0167 12.0266 41.2804 12.1359C41.5443 12.2451 41.7838 12.4052 41.9857 12.6071C42.1876 12.8089 42.3477 13.0486 42.4569 13.3123C42.5662 13.5761 42.6223 13.8587 42.6223 14.1442C42.6223 14.4296 42.5662 14.7123 42.4569 14.976C42.3477 15.2399 42.1876 15.4794 41.9857 15.6813C41.7838 15.883 41.5443 16.0433 41.2804 16.1525C41.0167 16.2618 40.7341 16.3179 40.4487 16.3179Z" fill="#27CA7D"/>
</svg>
