<svg width="32" height="33" viewBox="0 0 32 33" fill="none" xmlns="http://www.w3.org/2000/svg">
<path d="M7.9922 21.1132C2.97508 14.6293 3.72514 8.44539 9.72568 6.92859C11.5592 6.46188 13.9095 6.99526 15.2096 8.16204L15.8763 8.76209L16.8597 8.1787C22.5435 4.74506 29.5441 11.079 26.5772 16.9628C23.877 22.3133 15.0929 28.0638 13.2927 25.6636C12.7593 24.9469 13.026 24.8469 14.4428 25.1969C15.7929 25.5303 22.0268 19.9964 23.5769 17.0795C25.4438 13.5792 25.0771 11.679 22.0935 9.2788C20.86 8.29537 18.9432 8.72875 17.4431 10.3622C16.2596 11.629 15.0262 11.729 14.0094 10.1289C11.1258 5.62847 6.39206 9.19546 7.74218 14.846C8.3089 17.1795 8.92565 18.3463 11.2759 21.4466C12.876 23.5468 12.926 23.6468 12.3926 23.9301C11.3758 24.4802 9.79237 23.4634 7.9922 21.1132Z" fill="#27CA7D"/>
<path d="M20.3767 11.4793C19.5599 11.3293 20.2433 10.4125 21.01 10.6792C21.6434 10.9126 22.5269 11.2959 22.8769 12.2793C23.2603 13.3128 22.4935 14.3129 22.0601 14.1962C21.6767 14.0962 21.5601 13.6628 21.6101 12.7794C21.6601 11.896 21.1934 11.6293 20.3767 11.4793Z" fill="#27CA7D"/>
<path d="M22.2435 16.7626C21.1601 17.0126 20.3434 16.1959 20.8267 15.6458C21.1934 15.2458 22.5769 15.2125 22.9769 15.6125C23.3103 15.9625 23.0936 16.5626 22.2435 16.7626Z" fill="#27CA7D"/>
</svg>
