<svg width="20" height="20" viewBox="0 0 20 20" fill="none" xmlns="http://www.w3.org/2000/svg">
<path fill-rule="evenodd" clip-rule="evenodd" d="M9.44347 17.4783L5.11534 19.8562C4.53071 20.1774 3.80762 19.9425 3.50026 19.3316C3.37787 19.0883 3.33564 18.8096 3.3801 18.5387L4.2067 13.5023C4.27324 13.0969 4.14462 12.6833 3.86275 12.3961L0.36122 8.82936C-0.111752 8.34758 -0.12143 7.55634 0.339603 7.06208C0.52319 6.86526 0.763742 6.73717 1.02402 6.69765L5.86302 5.96285C6.25255 5.9037 6.58928 5.64804 6.76348 5.27918L8.92755 0.69694C9.21986 0.0779898 9.93697 -0.176136 10.5293 0.129334C10.7651 0.250974 10.956 0.450471 11.0724 0.69694L13.2365 5.27918C13.4107 5.64804 13.7474 5.9037 14.1369 5.96285L18.9759 6.69765C19.6296 6.7969 20.0825 7.43109 19.9875 8.11414C19.9497 8.38613 19.8271 8.63751 19.6387 8.82936L16.1372 12.3961C15.8554 12.6833 15.7267 13.0969 15.7933 13.5023L16.6199 18.5387C16.7315 19.219 16.2943 19.8651 15.6433 19.9818C15.3841 20.0282 15.1174 19.9841 14.8846 19.8562L10.5565 17.4783C10.2081 17.2869 9.79187 17.2869 9.44347 17.4783Z" fill="#FDC040"/>
</svg>
