<svg width="48" height="48" viewBox="0 0 48 48" fill="none" xmlns="http://www.w3.org/2000/svg">
<path d="M47.34 10.5C46.1344 9.96067 44.7848 9.83413 43.5 10.14C42.8718 10.3428 42.2831 10.6523 41.76 11.055C41.9265 10.1728 41.9265 9.26722 41.76 8.38501C41.7083 8.18609 41.5797 8.01587 41.4024 7.91179C41.2253 7.8077 41.0139 7.77829 40.815 7.83001C40.6161 7.88171 40.4459 8.01034 40.3418 8.18756C40.2377 8.36477 40.2083 8.57609 40.26 8.77501C40.352 9.53993 40.3217 10.3146 40.17 11.07C40.17 11.385 39.975 12.015 39.81 12.57L39.21 13.17C36.465 12.27 34.515 14.415 32.94 16.83C32.9188 15.5116 32.5737 14.2186 31.935 13.065C30.9005 11.7702 29.4564 10.8657 27.84 10.5C27.517 10.418 27.1806 10.4051 26.8523 10.4619C26.5241 10.5188 26.2115 10.6442 25.935 10.83C25.935 10.83 25.83 10.92 25.32 10.65C24.8862 10.3472 24.3537 10.2206 23.83 10.2958C23.3064 10.3709 22.8311 10.6424 22.5 11.055C22.1316 11.3882 21.8856 11.8352 21.8013 12.3247C21.717 12.8142 21.7993 13.3178 22.035 13.755C22.1211 13.8949 22.1763 14.0516 22.197 14.2145C22.2177 14.3775 22.2033 14.543 22.155 14.7C21.879 15.7056 21.997 16.7785 22.485 17.7C21.9809 17.6917 21.4774 17.7421 20.985 17.85C21.0246 17.6616 21.0546 17.4714 21.075 17.28C21.2061 16.579 21.187 15.8583 21.0189 15.1653C20.8509 14.4724 20.5377 13.823 20.1 13.26C18.9957 12.2537 17.5434 11.7158 16.05 11.76C16.7706 10.9971 17.2461 10.0357 17.415 9.00001C17.4231 7.48003 16.9213 6.00121 15.99 4.80001C15.9225 4.71155 15.8365 4.63889 15.7381 4.58708C15.6396 4.53527 15.5311 4.50556 15.42 4.50001C15.308 4.49951 15.1969 4.52188 15.0938 4.56572C14.9906 4.60957 14.8974 4.67396 14.82 4.75501C14.1216 5.64287 13.6113 6.66359 13.32 7.75501C12.8147 7.33609 12.2481 6.99715 11.64 6.75001C11.5376 6.69854 11.4246 6.67175 11.31 6.67175C11.1954 6.67175 11.0824 6.69854 10.98 6.75001C10.883 6.81047 10.8005 6.89153 10.7382 6.98744C10.676 7.08335 10.6357 7.19176 10.62 7.30501C10.5369 8.28835 10.6542 9.27835 10.965 10.215C11.3047 11.0866 11.901 11.8346 12.675 12.36C12.2697 12.5759 11.9085 12.866 11.61 13.215C10.7452 14.3838 10.3493 15.834 10.5 17.28C10.275 17.43 10.065 17.595 9.84 17.775C9.43446 17.0934 8.92881 16.4764 8.34 15.945C7.62222 15.3909 6.83566 14.932 6 14.58C5.81472 14.5102 5.60961 14.515 5.42779 14.5933C5.24597 14.6717 5.10159 14.8174 5.025 15C4.98597 15.0904 4.96551 15.1878 4.96482 15.2862C4.96415 15.3847 4.98325 15.4822 5.02104 15.5733C5.05881 15.6642 5.11448 15.7467 5.18474 15.8157C5.255 15.8847 5.33839 15.9388 5.43 15.975C6.10111 16.2672 6.7314 16.6453 7.305 17.1C7.80359 17.5324 8.2335 18.0382 8.58 18.6C8.31 18.6 7.965 18.735 7.47 18.825L6.6 18.975C5.01 19.275 4.59 21.12 4.605 22.515C4.14409 22.6504 3.73906 22.9306 3.44997 23.3143C3.16087 23.698 3.00309 24.1647 3 24.645V41.85C2.99999 42.4998 3.2571 43.1233 3.7152 43.5841C4.1733 44.0451 4.79517 44.3061 5.445 44.31H42C42.6498 44.3061 43.2717 44.0451 43.7298 43.5841C44.1879 43.1233 44.445 42.4998 44.445 41.85V24.645C44.445 24.0483 44.208 23.4759 43.786 23.0539C43.3641 22.632 42.7917 22.395 42.195 22.395H41.865C41.7817 21.5722 41.8323 20.7415 42.015 19.935C42.09 19.545 42.18 19.17 42.255 18.84C42.5096 18.2191 42.6111 17.5462 42.5511 16.8778C42.4909 16.2096 42.2712 15.5655 41.91 15H42.315C43.1181 15.0303 43.9215 14.9445 44.7 14.745C46.275 14.22 47.52 11.745 47.7 11.52C47.7874 11.337 47.7987 11.1267 47.7312 10.9355C47.6637 10.7442 47.523 10.5875 47.34 10.5ZM42.915 41.85C42.915 42.102 42.816 42.3439 42.6391 42.5236C42.4623 42.7032 42.222 42.8061 41.97 42.81H5.445C5.193 42.8061 4.95266 42.7032 4.77585 42.5236C4.59905 42.3439 4.49997 42.102 4.5 41.85V39.21H42.915V41.85ZM23.595 12.075C23.94 11.7 24.045 11.745 24.645 12.075C24.9622 12.3089 25.3459 12.4351 25.74 12.4351C26.1341 12.4351 26.5177 12.3089 26.835 12.075C27.0733 11.9939 27.3316 11.9939 27.57 12.075C28.8015 12.3464 29.9119 13.0095 30.735 13.965C31.4202 15.4662 31.6847 17.1252 31.5 18.765C31.116 19.1125 30.7047 19.4286 30.27 19.71C29.7411 20.056 29.2397 20.4421 28.77 20.865C28.2857 20.0656 27.6315 19.3825 26.8539 18.8641C26.0763 18.3457 25.1942 18.0046 24.27 17.865C23.7143 17.0974 23.4582 16.1532 23.55 15.21C23.6727 14.8802 23.7253 14.5286 23.7046 14.1774C23.6839 13.8262 23.5905 13.4831 23.43 13.17C23.22 12.675 23.16 12.54 23.595 12.075ZM23.295 19.245C24.2091 19.27 25.0981 19.5502 25.8615 20.0539C26.6248 20.5575 27.2322 21.2644 27.615 22.095L27.15 22.695C26.4629 23.599 26.1031 24.7098 26.13 25.845C25.5716 25.5573 24.9576 25.3936 24.33 25.365C24.0594 24.7243 23.589 24.1884 22.9888 23.8369C22.3887 23.4855 21.691 23.3376 21 23.415C20.3041 23.3947 19.6155 23.5605 19.005 23.895C19.071 22.8813 18.9491 21.8643 18.645 20.895C18.7766 20.7421 18.9168 20.5969 19.065 20.46C19.462 20.3125 19.8172 20.0704 20.1 19.755C21.0817 19.2438 22.2029 19.0648 23.295 19.245ZM18.495 27.525H15.135C15.195 27.2848 15.3135 27.0633 15.48 26.88C15.6454 26.7243 15.8418 26.605 16.0563 26.53C16.2706 26.4552 16.4986 26.4261 16.725 26.445C17.0958 26.4183 17.4655 26.508 17.7829 26.7016C18.1002 26.8953 18.3492 27.1831 18.495 27.525ZM20.07 27.525C19.9153 26.9281 19.6107 26.3808 19.185 25.935C19.29 25.56 19.65 24.915 21.015 24.915C21.3207 24.8847 21.6294 24.9213 21.9195 25.0222C22.2096 25.1233 22.4742 25.2864 22.695 25.5C22.1921 25.6288 21.7295 25.8816 21.3495 26.2354C20.9695 26.5891 20.6844 27.0325 20.52 27.525H20.07ZM23.835 26.835C24.2075 26.7865 24.5861 26.8234 24.942 26.943C25.2981 27.0625 25.6222 27.2616 25.89 27.525H22.185C22.3825 27.2838 22.6363 27.0946 22.924 26.9743C23.2118 26.854 23.5245 26.8062 23.835 26.835ZM14.7 8.31001C14.84 7.72177 15.0621 7.15621 15.36 6.63001C15.7521 7.30285 15.9495 8.07146 15.93 8.85001C15.8121 9.51308 15.5225 10.1337 15.09 10.65C14.7411 9.92266 14.6058 9.11119 14.7 8.31001ZM12.105 8.74501C12.4643 8.97737 12.7586 9.29743 12.96 9.67501C13.1125 10.046 13.189 10.4439 13.185 10.845C12.816 10.5702 12.5262 10.2028 12.345 9.78001C12.2346 9.44278 12.1542 9.09641 12.105 8.74501ZM12.75 14.175C13.0716 13.847 13.4613 13.5938 13.8916 13.433C14.3218 13.2723 14.7822 13.2082 15.24 13.245C16.5894 13.0804 17.9489 13.458 19.02 14.295C19.3172 14.7057 19.5242 15.1746 19.6277 15.6709C19.731 16.1673 19.7285 16.6797 19.62 17.175C19.601 17.7096 19.4349 18.2286 19.14 18.675C18.8479 18.8521 18.5674 19.0476 18.3 19.26L18 19.5C17.4841 18.6642 16.7958 17.9481 15.9809 17.3997C15.166 16.8513 14.2435 16.4832 13.275 16.32C12.8416 16.249 12.3968 16.3117 12 16.5C11.9956 15.6648 12.2584 14.8502 12.75 14.175ZM4.5 24.675C4.5 24.4761 4.57902 24.2853 4.71968 24.1447C4.86032 24.004 5.05108 23.925 5.25 23.925H7.65C7.84891 23.925 8.03968 24.004 8.18032 24.1447C8.32098 24.2853 8.4 24.4761 8.4 24.675V27.525H4.5V24.675ZM7.65 22.425H6.15C6.15 21.615 6.345 20.58 6.915 20.475L7.77 20.325C8.69194 20.2677 9.57759 19.9446 10.32 19.395C12.15 17.82 12.765 17.745 13.02 17.82C13.8427 17.9484 14.6244 18.2658 15.3038 18.7473C15.983 19.2288 16.5414 19.8612 16.935 20.595C17.6166 21.993 17.7813 23.5872 17.4 25.095C17.1903 25.0788 16.9797 25.0788 16.77 25.095C16.3406 25.0695 15.9108 25.1367 15.5096 25.2921C15.1084 25.4473 14.7454 25.687 14.445 25.995C14.0143 26.4642 13.7279 27.0474 13.62 27.675H9.9V24.645C9.9 24.0483 9.66294 23.4759 9.24099 23.0539C8.81904 22.632 8.24673 22.395 7.65 22.395V22.425ZM42.915 37.68H4.5V34.125H42.915V37.68ZM4.5 32.58V29.025H42.915V32.58H4.5ZM42.915 24.645V27.495H39V24.645C39 24.5452 39.0198 24.4464 39.0585 24.3544C39.097 24.2625 39.1537 24.1791 39.225 24.1093C39.2962 24.0394 39.3807 23.9845 39.4734 23.9478C39.5661 23.9109 39.6652 23.893 39.765 23.895H42.15C42.2498 23.893 42.3489 23.9109 42.4416 23.9478C42.5343 23.9845 42.6187 24.0394 42.69 24.1093C42.7612 24.1791 42.8179 24.2625 42.8565 24.3544C42.8952 24.4464 42.915 24.5452 42.915 24.645ZM39.78 22.395C39.4826 22.393 39.1877 22.4496 38.9121 22.5616C38.6366 22.6737 38.3857 22.8388 38.174 23.0478C37.9623 23.2567 37.7938 23.5053 37.6782 23.7793C37.5625 24.0534 37.5019 24.3475 37.5 24.645V27.525H28.05C27.7167 26.9077 27.5679 26.2078 27.621 25.5085C27.6742 24.8091 27.9273 24.1396 28.35 23.58C29.084 22.551 30.0111 21.6747 31.08 21C32.2957 20.2419 33.3219 19.2157 34.08 18C36.75 13.815 38.28 14.265 39.735 15.165C41.19 16.065 41.16 16.755 40.74 18.57C40.665 18.915 40.575 19.305 40.5 19.71C40.3044 20.611 40.2387 21.5353 40.305 22.455L39.78 22.395ZM44.28 13.395C43.2924 13.5885 42.282 13.639 41.28 13.545V13.5C42.0285 12.7087 42.9324 12.0805 43.935 11.655C44.6039 11.4803 45.3061 11.4803 45.975 11.655C45.5551 12.3653 44.9479 12.9465 44.22 13.335L44.28 13.395Z" fill="#27CA7D"/>
<path d="M6.29997 29.8359C6.10416 29.8359 5.91276 29.8939 5.74995 30.0028C5.58716 30.1116 5.46026 30.2662 5.38533 30.4471C5.31039 30.628 5.29079 30.8271 5.32899 31.0191C5.3672 31.2111 5.46149 31.3875 5.59994 31.5259C5.73839 31.6644 5.91479 31.7587 6.10683 31.7968C6.29888 31.8351 6.49793 31.8154 6.67883 31.7406C6.85973 31.6656 7.01435 31.5387 7.12313 31.3759C7.23191 31.2132 7.28997 31.0218 7.28997 30.8259C7.2861 30.5646 7.18055 30.315 6.99572 30.1302C6.81089 29.9454 6.56133 29.8398 6.29997 29.8359ZM6.29997 31.3359C6.1647 31.3359 6.03498 31.2822 5.93934 31.1865C5.8437 31.0909 5.78997 30.9612 5.78997 30.8259C5.78997 30.6907 5.8437 30.561 5.93934 30.4653C6.03498 30.3696 6.1647 30.3159 6.29997 30.3159C6.43523 30.3159 6.56495 30.3696 6.66059 30.4653C6.75624 30.561 6.80997 30.6907 6.80997 30.8259C6.80997 30.9612 6.75624 31.0909 6.66059 31.1865C6.56495 31.2822 6.43523 31.3359 6.29997 31.3359Z" fill="#27CA7D"/>
<path d="M40.815 29.8359C40.6193 29.8359 40.4277 29.8939 40.265 30.0028C40.1022 30.1116 39.9753 30.2662 39.9003 30.4471C39.8255 30.628 39.8058 30.8271 39.8441 31.0191C39.8822 31.2111 39.9765 31.3875 40.115 31.5259C40.2534 31.6644 40.4298 31.7587 40.6218 31.7968C40.814 31.8351 41.013 31.8154 41.1939 31.7406C41.3748 31.6656 41.5293 31.5387 41.6382 31.3759C41.747 31.2132 41.805 31.0218 41.805 30.8259C41.805 30.5634 41.7008 30.3115 41.5151 30.1258C41.3294 29.9403 41.0775 29.8359 40.815 29.8359ZM40.815 31.3359C40.6797 31.3359 40.55 31.2822 40.4544 31.1865C40.3587 31.0909 40.305 30.9612 40.305 30.8259C40.3259 30.7038 40.3893 30.5929 40.484 30.5131C40.5786 30.4332 40.6986 30.3894 40.8225 30.3894C40.9464 30.3894 41.0663 30.4332 41.1611 30.5131C41.2557 30.5929 41.3192 30.7038 41.34 30.8259C41.3361 30.9625 41.2791 31.0923 41.181 31.1875C41.0829 31.2828 40.9517 31.336 40.815 31.3359Z" fill="#27CA7D"/>
<path d="M6.29997 36.8726C6.49576 36.8726 6.68718 36.8145 6.84997 36.7058C7.01278 36.597 7.13967 36.4424 7.21461 36.2615C7.28953 36.0806 7.30914 35.8815 7.27095 35.6895C7.23274 35.4974 7.13845 35.321 7 35.1825C6.86155 35.0441 6.68515 34.9499 6.49311 34.9116C6.30106 34.8734 6.10201 34.893 5.92111 34.968C5.74021 35.0429 5.58559 35.1698 5.47681 35.3325C5.36803 35.4954 5.30997 35.6868 5.30997 35.8826C5.31384 36.144 5.41938 36.3935 5.60421 36.5784C5.78904 36.7632 6.03861 36.8687 6.29997 36.8726ZM6.29997 35.3726C6.40083 35.3726 6.49944 35.4026 6.5833 35.4585C6.66717 35.5146 6.73254 35.5943 6.77115 35.6874C6.80974 35.7806 6.81984 35.8832 6.80017 35.982C6.78049 36.081 6.73191 36.1719 6.66058 36.2432C6.58926 36.3146 6.49839 36.3632 6.39946 36.3828C6.30054 36.4025 6.19798 36.3924 6.1048 36.3537C6.01161 36.3152 5.93196 36.2498 5.87592 36.1659C5.81988 36.0821 5.78997 35.9835 5.78997 35.8826C5.78997 35.7473 5.8437 35.6177 5.93934 35.522C6.03498 35.4263 6.1647 35.3726 6.29997 35.3726Z" fill="#27CA7D"/>
<path d="M40.815 36.8724C41.0113 36.8754 41.2042 36.8199 41.3691 36.7129C41.5338 36.606 41.6631 36.4524 41.7402 36.2718C41.8174 36.0912 41.8392 35.8917 41.8027 35.6986C41.7663 35.5056 41.6731 35.3278 41.5353 35.1879C41.3974 35.0479 41.2212 34.9521 41.0287 34.9128C40.8363 34.8733 40.6365 34.8919 40.4547 34.9665C40.2729 35.0409 40.1173 35.1678 40.008 35.3308C39.8985 35.494 39.84 35.686 39.84 35.8824C39.84 36.1425 39.9421 36.3919 40.1247 36.5772C40.3071 36.7624 40.555 36.8685 40.815 36.8724ZM40.815 35.3724C40.9158 35.3724 41.0145 35.4024 41.0983 35.4583C41.1822 35.5144 41.2476 35.5941 41.2861 35.6872C41.3248 35.7805 41.3349 35.883 41.3152 35.982C41.2954 36.0808 41.247 36.1717 41.1756 36.2431C41.1043 36.3144 41.0134 36.363 40.9144 36.3826C40.8156 36.4023 40.713 36.3922 40.6198 36.3537C40.5267 36.315 40.447 36.2496 40.3909 36.1657C40.3348 36.0819 40.305 35.9833 40.305 35.8824C40.3087 35.7484 40.3636 35.6208 40.4586 35.526C40.5534 35.4312 40.6809 35.3763 40.815 35.3724Z" fill="#27CA7D"/>
<path d="M6.29997 41.9995C6.49576 41.9995 6.68718 41.9415 6.84997 41.8327C7.01278 41.7238 7.13967 41.5693 7.21461 41.3884C7.28953 41.2075 7.30914 41.0085 7.27095 40.8163C7.23274 40.6243 7.13845 40.4479 7 40.3095C6.86155 40.171 6.68515 40.0767 6.49311 40.0386C6.30106 40.0003 6.10201 40.02 5.92111 40.0948C5.74021 40.1698 5.58559 40.2967 5.47681 40.4595C5.36803 40.6222 5.30997 40.8138 5.30997 41.0095C5.31384 41.2708 5.41938 41.5204 5.60421 41.7052C5.78904 41.89 6.03861 41.9956 6.29997 41.9995ZM6.29997 40.4995C6.43522 40.4995 6.56494 40.5532 6.66058 40.6489C6.75624 40.7445 6.80997 40.8742 6.80997 41.0095C6.80997 41.1448 6.75624 41.2744 6.66058 41.3701C6.56494 41.4658 6.43522 41.5195 6.29997 41.5195C6.1647 41.5195 6.03498 41.4658 5.93934 41.3701C5.8437 41.2744 5.78997 41.1448 5.78997 41.0095C5.78997 40.8742 5.8437 40.7445 5.93934 40.6489C6.03498 40.5532 6.1647 40.4995 6.29997 40.4995Z" fill="#27CA7D"/>
<path d="M40.815 41.9995C41.0775 41.9995 41.3294 41.8953 41.5151 41.7096C41.7008 41.5239 41.805 41.272 41.805 41.0095C41.805 40.7469 41.7008 40.4952 41.5151 40.3095C41.3294 40.1238 41.0775 40.0195 40.815 40.0195C40.5524 40.0195 40.3007 40.1238 40.115 40.3095C39.9293 40.4952 39.825 40.7469 39.825 41.0095C39.825 41.272 39.9293 41.5239 40.115 41.7096C40.3007 41.8953 40.5524 41.9995 40.815 41.9995ZM40.815 40.4995C40.9517 40.4995 41.0829 40.5526 41.181 40.6479C41.2791 40.7431 41.3361 40.8729 41.34 41.0095C41.3192 41.1316 41.2557 41.2425 41.1611 41.3224C41.0663 41.4022 40.9464 41.446 40.8225 41.446C40.6986 41.446 40.5786 41.4022 40.484 41.3224C40.3893 41.2425 40.3259 41.1316 40.305 41.0095C40.305 40.8742 40.3587 40.7445 40.4544 40.6489C40.55 40.5532 40.6797 40.4995 40.815 40.4995Z" fill="#27CA7D"/>
</svg>
