<svg width="48" height="48" viewBox="0 0 48 48" fill="none" xmlns="http://www.w3.org/2000/svg">
<path d="M39.5715 39.5333L37.0167 38.1372V34.7867C37.0189 34.659 36.9846 34.5335 36.9179 34.4246C36.851 34.3158 36.7545 34.2284 36.6398 34.1724L33.8476 32.6787C33.8476 32.2739 33.9592 31.3943 33.9872 29.7888V29.1467C33.9872 26.3546 30.8322 23.3252 29.9108 22.4876V20.8122H30.2877C30.4728 20.8122 30.6504 20.7387 30.7812 20.6078C30.9121 20.4768 30.9857 20.2994 30.9857 20.1143V16.9173C30.9857 16.4507 30.8004 16.0034 30.4706 15.6734C30.1405 15.3435 29.6933 15.1583 29.2268 15.1583H7.95082C7.48429 15.1583 7.03687 15.3435 6.70699 15.6734C6.37711 16.0034 6.19179 16.4507 6.19179 16.9173V20.1561C6.19179 20.3412 6.26533 20.5188 6.39624 20.6496C6.52714 20.7806 6.70468 20.8541 6.88981 20.8541V22.683C5.67054 23.7806 4.6951 25.1217 4.0266 26.6199C3.35808 28.1181 3.01134 29.7398 3.00879 31.3803C3.00879 39.7566 11.5666 45.8435 11.9296 46.1087C12.049 46.19 12.19 46.2338 12.3344 46.2344H24.7174C24.9025 46.2344 25.0801 46.1609 25.2109 46.0299C25.3419 45.899 25.4154 45.7215 25.4154 45.5364C25.4154 45.3512 25.3419 45.1737 25.2109 45.0428C25.0801 44.9118 24.9025 44.8383 24.7174 44.8383H12.5578C11.3851 43.9449 4.40484 38.4026 4.40484 31.3803C4.40484 31.0733 4.40484 30.78 4.40484 30.4869H32.5632C32.5618 31.2341 32.5106 31.9803 32.4098 32.7206L29.6874 34.3121C29.5819 34.373 29.4942 34.4604 29.433 34.5657C29.3716 34.671 29.3391 34.7906 29.3384 34.9124V37.8302L26.2111 39.659C26.1057 39.7199 26.018 39.8073 25.9567 39.9126C25.8955 40.0179 25.8629 40.1375 25.8622 40.2593V43.8332C25.8609 43.9487 25.8882 44.0627 25.9419 44.1651C25.9954 44.2674 26.0736 44.3549 26.1693 44.4195L29.2965 46.4717C29.4149 46.5422 29.5495 46.5806 29.6874 46.5834C29.8275 46.5825 29.9639 46.5387 30.0783 46.4577L32.8704 44.5731L35.7601 46.4717C35.8787 46.5422 36.0134 46.5806 36.1511 46.5834C36.2909 46.5809 36.4269 46.5371 36.542 46.4577L39.6831 44.3498C39.7797 44.2848 39.8593 44.1977 39.9151 44.0957C39.9711 43.9937 40.0015 43.8797 40.0042 43.7634V40.1475C39.9949 40.0155 39.9498 39.8883 39.8735 39.7802C39.7972 39.6719 39.6927 39.5865 39.5715 39.5333ZM29.5338 16.9173V19.4162H29.1569C29.0643 19.4018 28.9703 19.4018 28.8777 19.4162H21.8974V16.5543H29.2407C29.3244 16.5707 29.3997 16.616 29.4533 16.6824C29.507 16.7489 29.5354 16.832 29.5338 16.9173ZM11.776 25.4052V16.5543H20.4733V23.744C20.4747 24.0636 20.3664 24.3741 20.1663 24.6234C20.0521 24.7232 19.9192 24.7992 19.7755 24.8471C19.6317 24.8951 19.4797 24.914 19.3287 24.9027C18.505 24.9027 18.3375 23.5067 18.3375 23.4368C18.2613 22.8749 17.9931 22.3565 17.5783 21.9698C17.1636 21.5829 16.6278 21.3516 16.0618 21.3149C15.4816 21.3438 14.9363 21.6005 14.5442 22.0292C14.1522 22.4579 13.945 23.0238 13.9678 23.6043V25.4052C13.9619 25.6832 13.9051 25.9575 13.8003 26.2149C13.717 26.4101 13.5726 26.5728 13.3888 26.6786C13.2049 26.7843 12.9916 26.8274 12.7812 26.8013C12.6493 26.8133 12.5163 26.7969 12.3912 26.7536C12.2661 26.7104 12.1515 26.6409 12.0552 26.55C11.8242 26.216 11.7247 25.8083 11.776 25.4052ZM7.95082 16.5543H10.38V19.472H7.58784V16.9313C7.58596 16.8824 7.59396 16.8336 7.61136 16.788C7.62876 16.7424 7.6552 16.7007 7.68909 16.6655C7.72299 16.6302 7.76364 16.6023 7.80861 16.5831C7.85358 16.5641 7.90195 16.5542 7.95082 16.5543ZM8.0625 23.5346C8.15001 23.4704 8.22097 23.3862 8.26953 23.289C8.31808 23.192 8.34282 23.0847 8.34171 22.9761V20.868H10.3939V25.4052C10.3257 26.1647 10.556 26.9208 11.0361 27.5133C11.2617 27.7448 11.534 27.9254 11.8349 28.0434C12.1358 28.1613 12.4584 28.2138 12.7812 28.1973C13.1087 28.2081 13.4349 28.1517 13.7399 28.0317C14.0448 27.9117 14.3219 27.7305 14.5542 27.4994C15.0751 26.9264 15.3637 26.1797 15.3639 25.4052V23.6322C15.3639 23.6322 15.3639 22.7109 16.0618 22.7109C16.7599 22.7109 16.9554 23.6322 16.9554 23.6322C17.053 24.5537 17.6673 26.2988 19.3287 26.2988C19.6662 26.3129 20.0029 26.2569 20.3176 26.1345C20.6325 26.012 20.9184 25.8254 21.1575 25.5867C21.6127 25.0706 21.8614 24.4043 21.8554 23.7161V20.924H28.4868V22.8365C28.4857 22.9389 28.5063 23.0403 28.5472 23.1341C28.588 23.228 28.6484 23.3121 28.7241 23.381C29.7851 24.2745 32.5213 27.0527 32.5632 29.1467H4.68405C5.1999 26.9783 6.38124 25.0257 8.0625 23.5625V23.5346ZM30.7344 35.3312L33.1914 33.9351L35.6207 35.2196V38.0117L33.0101 39.5472L32.3259 39.1005L30.7902 38.0954L30.7344 35.3312ZM29.6175 45.0198L27.2023 43.4283V40.7619L29.6455 39.3657L31.572 40.371L32.0886 40.706V43.4981L29.6175 45.0198ZM38.5522 43.3586L36.0813 45.0198L33.722 43.4562V41.0271L36.1791 39.3657L38.5522 40.6223V43.3586Z" fill="#27CA7D"/>
<path d="M40.5899 4.37833C40.1336 4.37995 39.6839 4.48807 39.2768 4.69408C38.8695 4.90009 38.5161 5.19831 38.2445 5.56498C37.8848 5.2863 37.4432 5.13417 36.9881 5.1322H23.4882C23.249 5.13529 23.0123 5.18263 22.7901 5.27181C22.7168 4.78339 22.4708 4.33743 22.097 4.01473C21.723 3.69204 21.2459 3.51397 20.7519 3.51277H20.375C20.1413 3.5125 19.9094 3.55509 19.691 3.63843C19.6659 3.10996 19.4391 2.61123 19.0574 2.245C18.6755 1.87878 18.1679 1.67298 17.6388 1.66999H17.2619C16.7466 1.66657 16.2486 1.85578 15.8658 2.20048C15.4814 1.85809 14.9844 1.66923 14.4697 1.66999H14.1765C13.6412 1.66563 13.1249 1.86778 12.7349 2.23441C12.3448 2.60103 12.1112 3.1039 12.0824 3.63843C11.8603 3.55104 11.6231 3.50835 11.3844 3.51277H11.0354C10.4874 3.51277 9.96189 3.73047 9.57441 4.11795C9.18693 4.50543 8.96924 5.03095 8.96924 5.57893V9.02719C8.96924 9.57517 9.18693 10.1007 9.57441 10.4882C9.96189 10.8757 10.4874 11.0934 11.0354 11.0934H11.3844C11.6184 11.096 11.8507 11.0533 12.0685 10.9677C12.0938 11.5059 12.3284 12.0129 12.7222 12.3806C13.116 12.7483 13.6379 12.9476 14.1765 12.9361H14.5535C15.0695 12.9437 15.5688 12.7539 15.9495 12.4056C16.3287 12.7564 16.8291 12.9466 17.3456 12.9361H17.7225C18.2502 12.933 18.7563 12.7267 19.1358 12.3602C19.5155 11.9936 19.7393 11.4949 19.7607 10.9677C19.9791 11.051 20.211 11.0936 20.4449 11.0934H20.8218C21.3015 11.0764 21.7604 10.893 22.1196 10.5746C22.4787 10.2561 22.7159 9.82254 22.7901 9.34828C23.015 9.42616 23.2505 9.46855 23.4882 9.47392H36.9881C37.4432 9.47197 37.8848 9.31983 38.2445 9.04116C38.5419 9.43974 38.9364 9.75568 39.3903 9.95896C39.8442 10.1623 40.3425 10.2461 40.838 10.2027C41.3334 10.1592 41.8095 9.98977 42.2211 9.71053C42.6326 9.43129 42.966 9.05148 43.1895 8.60718C43.4129 8.16286 43.5192 7.66881 43.4979 7.1719C43.4768 6.67501 43.329 6.19177 43.0685 5.76807C42.8081 5.34438 42.4436 4.99429 42.0098 4.75107C41.576 4.50783 41.0873 4.37953 40.5899 4.37833ZM11.3844 9.6973H11.0354C10.9469 9.69921 10.8589 9.68317 10.7767 9.65017C10.6946 9.61717 10.6199 9.56788 10.5573 9.50527C10.4947 9.44266 10.4454 9.36802 10.4124 9.28587C10.3794 9.2037 10.3634 9.11571 10.3653 9.02719V5.57893C10.3653 5.40121 10.4359 5.23077 10.5616 5.1051C10.6872 4.97943 10.8577 4.90884 11.0354 4.90884H11.3844C11.5634 4.90879 11.7354 4.97895 11.8632 5.10423C11.9912 5.22951 12.0648 5.39994 12.0685 5.57893V9.02719C12.0685 9.11638 12.0507 9.20467 12.0162 9.2869C11.9816 9.36912 11.931 9.44362 11.8673 9.50604C11.8036 9.56844 11.7281 9.6175 11.6451 9.65035C11.5622 9.68319 11.4736 9.69915 11.3844 9.6973ZM14.5255 11.5401H14.1765C14.088 11.542 14 11.526 13.9178 11.493C13.8357 11.46 13.761 11.4107 13.6984 11.3481C13.6358 11.2854 13.5866 11.2108 13.5535 11.1287C13.5205 11.0465 13.5045 10.9585 13.5064 10.87V3.73615C13.5064 3.55842 13.577 3.38799 13.7027 3.26232C13.8284 3.13665 13.9988 3.06604 14.1765 3.06604H14.5535C14.7301 3.06961 14.8984 3.14136 15.0234 3.26626C15.1482 3.39117 15.2201 3.55954 15.2235 3.73615V10.87C15.2237 10.9604 15.2054 11.0499 15.17 11.133C15.1346 11.2162 15.0828 11.2914 15.0176 11.354C14.9523 11.4166 14.8751 11.4653 14.7906 11.4973C14.706 11.5293 14.6159 11.5438 14.5255 11.5401ZM18.3647 10.87C18.3647 11.0477 18.2942 11.2182 18.1685 11.3438C18.0428 11.4695 17.8724 11.5401 17.6946 11.5401H17.3177C17.2292 11.542 17.1411 11.526 17.0589 11.493C16.9769 11.46 16.9022 11.4107 16.8396 11.3481C16.7769 11.2854 16.7277 11.2108 16.6947 11.1287C16.6617 11.0465 16.6457 10.9585 16.6476 10.87V3.73615C16.647 3.56769 16.7099 3.40519 16.8237 3.28101C16.9376 3.15684 17.0939 3.08008 17.2619 3.06604H17.6388C17.8154 3.06961 17.9837 3.14136 18.1086 3.26626C18.2336 3.39117 18.3053 3.55954 18.3089 3.73615V10.87H18.3647ZM21.4779 9.02719C21.4779 9.1152 21.4605 9.20233 21.4269 9.28363C21.3932 9.36493 21.3438 9.43881 21.2816 9.50103C21.2195 9.56325 21.1455 9.61261 21.0642 9.64629C20.9829 9.67996 20.8958 9.6973 20.8077 9.6973H20.4309C20.3429 9.6973 20.2557 9.67996 20.1744 9.64629C20.0931 9.61261 20.0193 9.56325 19.9571 9.50103C19.8948 9.43881 19.8455 9.36493 19.8117 9.28363C19.7781 9.20233 19.7607 9.1152 19.7607 9.02719V5.57893C19.7643 5.40234 19.836 5.23396 19.961 5.10906C20.0859 4.98415 20.2542 4.91241 20.4309 4.90884H20.8077C20.9844 4.91241 21.1527 4.98415 21.2777 5.10906C21.4026 5.23396 21.4743 5.40234 21.4779 5.57893V9.02719ZM37.6721 7.40776C37.6685 7.58676 37.5948 7.75719 37.4669 7.88248C37.3391 8.00776 37.167 8.07792 36.9881 8.07787H23.4882C23.3117 8.0743 23.1432 8.00256 23.0183 7.87765C22.8935 7.75275 22.8216 7.58437 22.8182 7.40776V7.25421C22.8216 7.0776 22.8935 6.90922 23.0183 6.78432C23.1432 6.65941 23.3117 6.58767 23.4882 6.5841H36.9881C37.167 6.58405 37.3391 6.65421 37.4669 6.7795C37.5948 6.90478 37.6685 7.07521 37.6721 7.25421V7.40776ZM40.5899 8.80383C40.2857 8.80935 39.9866 8.72434 39.7307 8.55961C39.4749 8.39488 39.2738 8.15785 39.1527 7.8786C39.0318 7.59934 38.9967 7.29046 39.0516 6.99115C39.1065 6.69186 39.2492 6.41562 39.4614 6.19752C39.6735 5.97942 39.9458 5.82927 40.2435 5.76615C40.5411 5.70304 40.8509 5.72979 41.1333 5.84301C41.4158 5.95621 41.6583 6.15081 41.8299 6.40206C42.0017 6.65331 42.0948 6.94992 42.0977 7.25421C42.105 7.45752 42.0717 7.66026 41.9994 7.85046C41.9273 8.04064 41.8176 8.21442 41.6771 8.36149C41.5364 8.50857 41.3678 8.62596 41.181 8.70673C40.9943 8.78751 40.7933 8.83002 40.5899 8.83174V8.80383Z" fill="#27CA7D"/>
</svg>
