<svg width="20" height="18" viewBox="0 0 20 18" fill="none" xmlns="http://www.w3.org/2000/svg">
<path d="M18.545 1.71428L19.2933 1.66466C19.2734 1.36381 19.0752 1.10415 18.7903 1.00553C18.5054 0.906912 18.1891 0.988515 17.9874 1.21267L18.545 1.71428ZM18.0724 5.33743C18.0724 4.92321 17.7366 4.58743 17.3224 4.58743C16.9082 4.58743 16.5724 4.92321 16.5724 5.33743H18.0724ZM10 6.42857V7.17857H10.75V6.42857H10ZM2.65119 1.71428L3.35357 1.45129C3.24892 1.17179 2.9885 0.980935 2.69046 0.965308C2.39241 0.949681 2.11347 1.11226 1.98016 1.37928L2.65119 1.71428ZM7.42859 12.8571L7.95933 13.3871C8.14287 13.2032 8.21822 12.9375 8.1585 12.6847C8.09878 12.4319 7.91249 12.228 7.66609 12.1457L7.42859 12.8571ZM1.42859 15.1837V14.4337C1.09819 14.4337 0.806705 14.6499 0.710847 14.9661C0.61499 15.2823 0.737339 15.6239 1.01212 15.8074L1.42859 15.1837ZM16.387 2.90617L15.8307 3.40919L16.101 3.70805L16.4993 3.64772L16.387 2.90617ZM17.7966 1.76389C17.8593 2.70938 17.7997 3.26556 17.6546 3.67462C17.515 4.068 17.2707 4.3985 16.8035 4.84623L17.8413 5.92927C18.3843 5.40891 18.8165 4.88585 19.0683 4.17611C19.3145 3.48204 19.361 2.68553 19.2933 1.66466L17.7966 1.76389ZM18.0724 6.22958V5.38775H16.5724V6.22958H18.0724ZM18.0724 5.38775V5.33743H16.5724V5.38775H18.0724ZM9.25002 5.57142V6.42857H10.75V5.57142H9.25002ZM13.7048 0.964279C11.199 0.964279 9.25002 3.13984 9.25002 5.57142H10.75C10.75 3.88982 12.1038 2.46428 13.7048 2.46428V0.964279ZM16.5724 6.22958C16.5724 11.4516 12.184 15.9643 7.00002 15.9643V17.4643C13.0417 17.4643 18.0724 12.2505 18.0724 6.22958H16.5724ZM1.94881 1.97727C2.63773 3.81724 5.20345 7.17857 10 7.17857V5.67857C5.99386 5.67857 3.88724 2.87662 3.35357 1.45129L1.94881 1.97727ZM1.98016 1.37928C0.686912 3.96978 0.45079 6.52837 1.36779 8.72284C2.2848 10.9173 4.29373 12.6013 7.19109 13.5685L7.66609 12.1457C5.06174 11.2763 3.45937 9.83775 2.75181 8.1445C2.04424 6.4512 2.17027 4.35674 3.32222 2.04928L1.98016 1.37928ZM6.89785 12.3272C6.18958 13.0366 4.12038 14.4337 1.42859 14.4337V15.9337C4.60528 15.9337 7.03749 14.3103 7.95933 13.3871L6.89785 12.3272ZM16.9433 2.40316C16.1454 1.52065 14.9896 0.964279 13.7048 0.964279V2.46428C14.5476 2.46428 15.3049 2.82761 15.8307 3.40919L16.9433 2.40316ZM16.4993 3.64772C17.4633 3.50172 18.4005 2.99634 19.1026 2.21588L17.9874 1.21267C17.5085 1.74504 16.882 2.07266 16.2747 2.16463L16.4993 3.64772ZM1.01212 15.8074C3.0084 17.1403 4.93142 17.4643 7.00002 17.4643V15.9643C5.11742 15.9643 3.51658 15.676 1.84506 14.5599L1.01212 15.8074Z" fill="#253D4E"/>
</svg>
