<svg width="48" height="48" viewBox="0 0 48 48" fill="none" xmlns="http://www.w3.org/2000/svg">
<g clip-path="url(#clip0_935_16249)">
<path d="M31.8008 18.0028C31.8008 18.0028 26.1008 10.0528 21.0008 13.3528C15.9008 16.6528 2.7007 41.5528 2.7007 41.5528C2.7007 41.5528 1.5007 43.3528 3.1507 45.0028C4.8007 46.6528 33.0008 33.3028 34.8008 28.6528C36.6008 24.0028 31.8008 18.0028 31.8008 18.0028Z" stroke="#27CA7D" stroke-miterlimit="10" stroke-linecap="round" stroke-linejoin="round"/>
<path d="M27.1486 13.6538C27.1486 13.6538 25.7986 1.65379 29.8486 1.50379C33.8986 1.35379 35.3986 5.70379 36.2986 5.70379C37.1986 5.70379 44.5486 -0.146211 46.4986 2.25379C48.4486 4.65379 41.3986 11.5538 42.1486 12.6038C43.0486 13.6538 47.5486 15.4537 47.5486 16.8037C47.5486 20.2537 33.5986 20.8537 33.5986 20.8537" stroke="#27CA7D" stroke-miterlimit="10" stroke-linecap="round" stroke-linejoin="round"/>
<path d="M18.1494 16.3535L27.4494 25.2035" stroke="#27CA7D" stroke-miterlimit="10" stroke-linecap="round" stroke-linejoin="round"/>
<path d="M25.8012 35.5535L17.7012 27.6035" stroke="#27CA7D" stroke-miterlimit="10" stroke-linecap="round" stroke-linejoin="round"/>
<path d="M9.60059 29.2559L14.5506 34.0559" stroke="#27CA7D" stroke-miterlimit="10" stroke-linecap="round" stroke-linejoin="round"/>
<path d="M13.0512 42.0024L10.2012 38.4024" stroke="#27CA7D" stroke-miterlimit="10" stroke-linecap="round" stroke-linejoin="round"/>
</g>
<defs>
<clipPath id="clip0_935_16249">
<rect width="48" height="48" fill="white"/>
</clipPath>
</defs>
</svg>
