<svg width="20" height="20" viewBox="0 0 20 20" fill="none" xmlns="http://www.w3.org/2000/svg">
<path d="M3.14263 15.1434L3.81345 15.4788L4.02093 15.0638L3.74227 14.6929L3.14263 15.1434ZM4.85667 16.8574L5.30715 16.2578L4.93622 15.9791L4.52126 16.1866L4.85667 16.8574ZM1.42859 18.5714L0.757768 18.236C0.613398 18.5248 0.669989 18.8735 0.898259 19.1018C1.12653 19.33 1.47526 19.3866 1.764 19.2423L1.42859 18.5714ZM6.57145 6.57144L6.12145 5.97144C5.93259 6.11308 5.82145 6.33537 5.82145 6.57144H6.57145ZM13.4286 13.4286V14.1786C13.6498 14.1786 13.8598 14.0809 14.0023 13.9117L13.4286 13.4286ZM7.10412 6.17193L6.65412 5.57193L7.10412 6.17193ZM8.46893 6.75133L7.72472 6.84436V6.84436L8.46893 6.75133ZM8.66231 8.29832L9.40652 8.20529V8.20529L8.66231 8.29832ZM8.41787 9.01073L7.88754 8.4804L8.41787 9.01073ZM13.8086 12.9774L13.2349 12.4943L13.8086 12.9774ZM13.277 11.5771L13.3856 10.835L13.277 11.5771ZM11.7116 11.348L11.8202 10.606L11.7116 11.348ZM10.9814 11.5901L11.5117 12.1204L10.9814 11.5901ZM0.678599 10C0.678599 12.0978 1.3725 14.0358 2.54299 15.5938L3.74227 14.6929C2.76023 13.3857 2.1786 11.7618 2.1786 10H0.678599ZM10 0.678574C4.85195 0.678574 0.678599 4.85192 0.678599 10H2.1786C2.1786 5.68035 5.68037 2.17857 10 2.17857V0.678574ZM19.3215 10C19.3215 4.85192 15.1481 0.678574 10 0.678574V2.17857C14.3197 2.17857 17.8215 5.68035 17.8215 10H19.3215ZM10 19.3214C15.1481 19.3214 19.3215 15.1481 19.3215 10H17.8215C17.8215 14.3197 14.3197 17.8214 10 17.8214V19.3214ZM4.40619 17.457C5.96426 18.6275 7.90219 19.3214 10 19.3214V17.8214C8.23819 17.8214 6.61437 17.2398 5.30715 16.2578L4.40619 17.457ZM1.764 19.2423L5.19208 17.5282L4.52126 16.1866L1.09318 17.9006L1.764 19.2423ZM2.47181 14.8079L0.757768 18.236L2.09941 18.9068L3.81345 15.4788L2.47181 14.8079ZM5.82145 6.57144V7.42858H7.32145V6.57144H5.82145ZM12.5714 14.1786H13.4286V12.6786H12.5714V14.1786ZM5.82145 7.42858C5.82145 11.1565 8.84352 14.1786 12.5714 14.1786V12.6786C9.67195 12.6786 7.32145 10.3281 7.32145 7.42858H5.82145ZM7.02145 7.17144L7.55412 6.77193L6.65412 5.57193L6.12145 5.97144L7.02145 7.17144ZM7.72472 6.84436L7.9181 8.39135L9.40652 8.20529L9.21314 6.65831L7.72472 6.84436ZM7.88754 8.4804L6.89826 9.46968L7.95892 10.5303L8.9482 9.54106L7.88754 8.4804ZM7.9181 8.39135C7.9222 8.42415 7.91092 8.45702 7.88754 8.4804L8.9482 9.54106C9.29889 9.19037 9.46803 8.69741 9.40652 8.20529L7.9181 8.39135ZM7.55412 6.77193C7.61994 6.72257 7.71452 6.76273 7.72472 6.84436L9.21314 6.65831C9.06008 5.43384 7.64132 4.83153 6.65412 5.57193L7.55412 6.77193ZM14.0023 13.9117L14.3822 13.4605L13.2349 12.4943L12.8549 12.9455L14.0023 13.9117ZM13.3856 10.835L11.8202 10.606L11.603 12.0901L13.1684 12.3192L13.3856 10.835ZM10.4511 11.0597L9.46969 12.0411L10.5303 13.1018L11.5117 12.1204L10.4511 11.0597ZM11.8202 10.606C11.3178 10.5324 10.8101 10.7007 10.4511 11.0597L11.5117 12.1204C11.5357 12.0965 11.5695 12.0852 11.603 12.0901L11.8202 10.606ZM14.3822 13.4605C15.1935 12.4971 14.6318 11.0174 13.3856 10.835L13.1684 12.3192C13.2515 12.3314 13.289 12.43 13.2349 12.4943L14.3822 13.4605Z" fill="#253D4E"/>
</svg>
